Coordinates
version=1
nRows=38
nColumns=38
inDegrees=no

Units are S.I. units (second, meters, Newtons, ...)
If the header above contains a line with 'inDegrees', this indicates whether rotational values are in degrees (yes) or radians (no).

endheader
time	pelvis_tilt	pelvis_list	pelvis_rotation	pelvis_tx	pelvis_ty	pelvis_tz	hip_flexion_r	hip_adduction_r	hip_rotation_r	knee_angle_r	ankle_angle_r	subtalar_angle_r	mtp_angle_r	hip_flexion_l	hip_adduction_l	hip_rotation_l	knee_angle_l	ankle_angle_l	subtalar_angle_l	mtp_angle_l	lumbar_extension	lumbar_bending	lumbar_rotation	arm_flex_r	arm_add_r	arm_rot_r	elbow_flex_r	pro_sup_r	wrist_flex_r	wrist_dev_r	arm_flex_l	arm_add_l	arm_rot_l	elbow_flex_l	pro_sup_l	wrist_flex_l	wrist_dev_l
0	0.940476	1.51969	0.782896	0.692641	-0.175857	0.933029	0.109561	-0.0197603	-0.0567185	0.446891	-0.139589	0	0	0.0883257	-0.0522728	0.0731479	0.327558	-0.164376	0	0	-0.0658038	0.0514166	-0.0577473	0.227023	-0.202222	1.5708	0.0492427	0	0	0	0.0834266	-0.235878	0.500255	0.661155	1.5708	0	0
0.01	0.902916	1.5163	0.820872	0.692624	-0.175429	0.933064	0.110173	-0.0168378	-0.0603969	0.436035	-0.143671	0	0	0.0933057	-0.0535498	0.0709331	0.329589	-0.165383	0	0	-0.0602546	0.054138	-0.0585789	0.225328	-0.19587	1.5708	0.0357025	0	0	0	0.0891301	-0.232011	0.507396	0.646428	1.5708	0	0
0.02	1.79782	1.52446	-0.0766899	0.691756	-0.176358	0.934163	0.0597689	-0.00882269	-0.0642581	0.42563	-0.143866	0	0	0.050466	-0.0651409	0.0486566	0.342377	-0.149663	0	0	-0.0214262	0.0859495	-0.229875	0.249857	-0.094185	1.5708	0	0.152865	0	0	-0.0138376	-0.227355	0.362344	0.622069	1.5708	0	0
0.03	1.80207	1.52475	-0.0805054	0.691789	-0.176157	0.934019	0.0607211	-0.00967098	-0.0673001	0.429242	-0.143377	0	0	0.0500831	-0.0650786	0.0480099	0.342127	-0.149403	0	0	-0.0217113	0.0860816	-0.228365	0.250663	-0.0935868	1.5708	0	0.158904	0	0	-0.0128215	-0.227715	0.362732	0.622102	1.5708	0	0
0.04	1.81162	1.52446	-0.0900643	0.691819	-0.175991	0.93402	0.0593086	-0.00905289	-0.0664997	0.42781	-0.14301	0	0	0.0494275	-0.0654648	0.0478212	0.342262	-0.149135	0	0	-0.0225534	0.0868378	-0.22759	0.251518	-0.0931802	1.5708	0	0.164233	0	0	-0.0116966	-0.227938	0.362635	0.621569	1.5708	0	0
0.05	1.86025	1.52314	-0.138578	0.69185	-0.175863	0.934235	0.0514757	-0.00606551	-0.058506	0.415245	-0.144459	0	0	0.0466204	-0.0668305	0.0470487	0.342202	-0.148968	0	0	-0.0256883	0.0885544	-0.227237	0.253042	-0.092917	1.5708	0	0.171543	0	0	-0.0104013	-0.228047	0.361719	0.620954	1.5708	0	0
0.06	1.90989	1.5228	-0.188323	0.691882	-0.17577	0.934353	0.0479735	-0.00610143	-0.0585259	0.413077	-0.145743	0	0	0.0437977	-0.0668825	0.0460431	0.342095	-0.148884	0	0	-0.0285828	0.0890828	-0.2272	0.254857	-0.0926393	1.5708	0	0.177007	0	0	-0.0098501	-0.228584	0.360485	0.621242	1.5708	0	0
0.07	1.96497	1.52154	-0.243481	0.691916	-0.175702	0.934597	0.0409898	-0.00435721	-0.0541078	0.403417	-0.147891	0	0	0.040372	-0.0677124	0.0452909	0.341795	-0.148971	0	0	-0.0320612	0.0905234	-0.227649	0.257143	-0.0925103	1.5708	0	0.182123	0	0	-0.00929336	-0.228831	0.358903	0.620882	1.5708	0	0
0.08	2.03399	1.5189	-0.312451	0.691961	-0.175645	0.935013	0.0289563	-0.000523978	-0.0442996	0.384225	-0.152298	0	0	0.0355906	-0.0696968	0.0442251	0.341277	-0.149234	0	0	-0.0365259	0.0929301	-0.228798	0.259658	-0.0922054	1.5708	0	0.186501	0	0	-0.00869775	-0.229155	0.357718	0.619885	1.5708	0	0
0.09	2.10491	1.51663	-0.383478	0.692022	-0.175585	0.935364	0.019591	0.00132325	-0.040071	0.372074	-0.157171	0	0	0.0303502	-0.0708925	0.0427761	0.340231	-0.149484	0	0	-0.041094	0.094484	-0.23006	0.262254	-0.0918692	1.5708	0	0.190277	0	0	-0.00852379	-0.229841	0.35614	0.61955	1.5708	0	0
0.1	2.14433	1.51447	-0.422863	0.692075	-0.175464	0.935652	0.00841348	0.00454576	-0.030083	0.352158	-0.161925	0	0	0.0266435	-0.0723019	0.0420715	0.339103	-0.149741	0	0	-0.0448847	0.0961188	-0.229643	0.263652	-0.0920979	1.5708	0	0.192694	0	0	-0.00758817	-0.230349	0.355386	0.619311	1.5708	0	0
0.11	2.20408	1.51089	-0.482437	0.692106	-0.175371	0.936144	-0.00874727	0.00900997	-0.0145717	0.3218	-0.170328	0	0	0.0207919	-0.0743139	0.0411824	0.33761	-0.150224	0	0	-0.0507093	0.0985266	-0.229374	0.265458	-0.0922261	1.5708	0	0.195029	0	0	-0.00612005	-0.230721	0.35493	0.618734	1.5708	0	0
0.12	2.26228	1.50742	-0.540422	0.692113	-0.175324	0.936615	-0.0238465	0.012244	-0.00337062	0.297172	-0.178693	0	0	0.0147304	-0.0757346	0.0407207	0.335945	-0.150789	0	0	-0.0567053	0.100449	-0.229401	0.267469	-0.0923409	1.5708	0	0.196651	0	0	-0.00476809	-0.23127	0.35474	0.618492	1.5708	0	0
0.13	2.32165	1.50336	-0.599492	0.692113	-0.175302	0.937148	-0.0396076	0.0155036	0.00812568	0.272474	-0.187873	0	0	0.0079098	-0.077197	0.0402944	0.333973	-0.151542	0	0	-0.0634714	0.102372	-0.229594	0.269709	-0.0925636	1.5708	0	0.197957	0	0	-0.00330483	-0.231765	0.35419	0.618211	1.5708	0	0
0.14	2.37771	1.49906	-0.655275	0.692096	-0.175314	0.937688	-0.0538012	0.0183648	0.0170101	0.252118	-0.19696	0	0	0.000889902	-0.0784871	0.0398042	0.331959	-0.152411	0	0	-0.0703353	0.104045	-0.230077	0.272051	-0.0927385	1.5708	0	0.199025	0	0	-0.00219756	-0.232527	0.353565	0.618382	1.5708	0	0
0.15	2.42112	1.49516	-0.69837	0.692035	-0.175308	0.938161	-0.0648568	0.0208939	0.0233152	0.23787	-0.204015	0	0	-0.00515431	-0.0796087	0.0392995	0.3303	-0.15326	0	0	-0.0757384	0.105637	-0.231141	0.274025	-0.0926302	1.5708	0	0.199835	0	0	-0.00163286	-0.233045	0.352535	0.618217	1.5708	0	0
0.16	2.46081	1.49085	-0.737781	0.691946	-0.175331	0.938679	-0.074289	0.0234477	0.0275053	0.228225	-0.210009	0	0	-0.0113121	-0.0808297	0.0389934	0.328778	-0.154229	0	0	-0.0814378	0.107478	-0.232192	0.276168	-0.0927701	1.5708	0	0.200578	0	0	-0.00116876	-0.233488	0.351357	0.618358	1.5708	0	0
0.17	2.49266	1.48572	-0.769577	0.691907	-0.175381	0.93925	-0.08223	0.0265121	0.0293954	0.222895	-0.21497	0	0	-0.0180794	-0.0825401	0.0410369	0.326716	-0.155066	0	0	-0.0877378	0.110083	-0.23288	0.278551	-0.0931356	1.5708	0	0.201279	0	0	-0.000583494	-0.233882	0.350364	0.618525	1.5708	0	0
0.18	2.5193	1.48077	-0.796606	0.692011	-0.175373	0.939683	-0.0879173	0.0291057	0.0301058	0.222578	-0.218218	0	0	-0.025324	-0.0837384	0.0465605	0.32348	-0.155312	0	0	-0.0927859	0.112117	-0.234196	0.280806	-0.0929904	1.5708	0	0.201962	0	0	-0.00117858	-0.234723	0.348763	0.619084	1.5708	0	0
0.19	2.5463	1.47846	-0.824565	0.692409	-0.175313	0.939742	-0.0834408	0.0239083	0.0182934	0.242029	-0.218362	0	0	-0.0304265	-0.0835038	0.0490794	0.320632	-0.155258	0	0	-0.0955008	0.111219	-0.235268	0.282161	-0.0916461	1.5708	0	0.202878	0	0	-0.00304055	-0.236366	0.345279	0.621001	1.5708	0	0
0.2	2.56085	1.47802	-0.839412	0.692322	-0.175322	0.939788	-0.0782774	0.0237925	0.0104537	0.258633	-0.212642	0	0	-0.0326122	-0.0821232	0.0514909	0.318673	-0.155688	0	0	-0.0964056	0.110469	-0.236752	0.283366	-0.0915779	1.5708	0	0.204115	0	0	-0.00441374	-0.236473	0.341514	0.621474	1.5708	0	0
0.21	2.56619	1.47823	-0.845003	0.692258	-0.175279	0.939796	-0.0740989	0.0240616	0.00619411	0.269826	-0.206523	0	0	-0.0330986	-0.081168	0.0526518	0.318187	-0.156164	0	0	-0.0960941	0.109773	-0.23722	0.283641	-0.0919447	1.5708	0	0.204988	0	0	-0.00523082	-0.236711	0.340076	0.621458	1.5708	0	0
0.22	2.56383	1.47911	-0.84289	0.692226	-0.175189	0.93975	-0.0702492	0.0243351	0.00418358	0.277633	-0.201509	0	0	-0.0324443	-0.0803638	0.0535934	0.317937	-0.156278	0	0	-0.0948812	0.10911	-0.237624	0.283546	-0.0924299	1.5708	0	0.205509	0	0	-0.00616315	-0.236982	0.338703	0.621637	1.5708	0	0
0.23	2.55589	1.48029	-0.835164	0.692205	-0.175047	0.939676	-0.0669157	0.0246293	0.00336643	0.282755	-0.197826	0	0	-0.031186	-0.0798323	0.0542831	0.317698	-0.156063	0	0	-0.0931677	0.108525	-0.237424	0.282898	-0.0931501	1.5708	0	0.205695	0	0	-0.00679459	-0.237148	0.337714	0.62162	1.5708	0	0
0.24	2.54963	1.48116	-0.829018	0.692183	-0.174923	0.939644	-0.0649186	0.0251766	0.00320499	0.285412	-0.195775	0	0	-0.0302576	-0.0794654	0.0549993	0.317494	-0.156008	0	0	-0.0921298	0.108011	-0.236629	0.282049	-0.0940187	1.5708	0	0.205552	0	0	-0.00697964	-0.23743	0.337394	0.621833	1.5708	0	0
0.25	2.5456	1.48189	-0.825097	0.692175	-0.174825	0.939625	-0.0630031	0.02531	0.00340004	0.288517	-0.19406	0	0	-0.0296749	-0.0790482	0.0557469	0.317095	-0.156166	0	0	-0.0915725	0.107474	-0.235388	0.281093	-0.0949469	1.5708	0	0.205065	0	0	-0.00691688	-0.237746	0.337403	0.622356	1.5708	0	0
0.26	2.54259	1.4826	-0.821988	0.69217	-0.174684	0.93961	-0.0620311	0.0254262	0.00374509	0.289578	-0.19315	0	0	-0.0292179	-0.0787073	0.0560213	0.316752	-0.156304	0	0	-0.0911979	0.106784	-0.234126	0.279964	-0.0959122	1.5708	0	0.204536	0	0	-0.00670254	-0.238063	0.337661	0.62273	1.5708	0	0
0.27	2.53781	1.48352	-0.816906	0.692168	-0.174512	0.939577	-0.0610263	0.025473	0.00416102	0.290155	-0.192373	0	0	-0.0285025	-0.0783524	0.0564663	0.316295	-0.156433	0	0	-0.090902	0.105899	-0.232325	0.278553	-0.0967897	1.5708	0	0.203895	0	0	-0.00603519	-0.238223	0.337998	0.622941	1.5708	0	0
0.28	2.53105	1.48456	-0.809952	0.692177	-0.174364	0.939544	-0.0599444	0.0255861	0.00428854	0.290174	-0.191715	0	0	-0.0275513	-0.0780139	0.0570789	0.315824	-0.156622	0	0	-0.0905227	0.10511	-0.230124	0.277117	-0.0977479	1.5708	0	0.203054	0	0	-0.00519785	-0.238399	0.338699	0.623328	1.5708	0	0
0.29	2.52326	1.48566	-0.801994	0.692214	-0.174225	0.939518	-0.058321	0.0255194	0.00451257	0.291192	-0.191155	0	0	-0.0264882	-0.0777267	0.0578752	0.315509	-0.157007	0	0	-0.0902834	0.104093	-0.22735	0.275516	-0.0987929	1.5708	0	0.202051	0	0	-0.0041115	-0.238712	0.339841	0.623921	1.5708	0	0
0.3	2.51068	1.48699	-0.789372	0.692244	-0.174071	0.939467	-0.0566049	0.0256494	0.00460701	0.291262	-0.190726	0	0	-0.0249773	-0.0775158	0.0588642	0.315434	-0.157538	0	0	-0.089669	0.103215	-0.224335	0.273833	-0.0999526	1.5708	0	0.200929	0	0	-0.00289019	-0.238933	0.341455	0.624257	1.5708	0	0
0.31	2.49532	1.48881	-0.773685	0.692239	-0.173863	0.939379	-0.0542022	0.0253249	0.0044483	0.291942	-0.190337	0	0	-0.0229107	-0.0770316	0.0598925	0.315133	-0.157951	0	0	-0.0885415	0.102089	-0.221301	0.271824	-0.10108	1.5708	0	0.199725	0	0	-0.00152909	-0.239024	0.343296	0.624298	1.5708	0	0
0.32	2.47322	1.49157	-0.75075	0.692203	-0.173604	0.939196	-0.0509694	0.0246961	0.00380156	0.292319	-0.189738	0	0	-0.0197094	-0.076104	0.061542	0.31442	-0.158326	0	0	-0.0860896	0.100543	-0.218403	0.269247	-0.102271	1.5708	0	0.198132	0	0	-1.94474e-05	-0.239056	0.345758	0.623936	1.5708	0	0
0.33	2.44804	1.49403	-0.724928	0.692178	-0.173406	0.939029	-0.0477181	0.0243158	0.00322888	0.292712	-0.189222	0	0	-0.0165354	-0.0754397	0.0632939	0.313907	-0.15867	0	0	-0.0839153	0.0993406	-0.215312	0.266904	-0.103502	1.5708	0	0.196441	0	0	0.00174522	-0.238861	0.347946	0.623422	1.5708	0	0
0.34	2.42673	1.49588	-0.703213	0.692181	-0.173245	0.938909	-0.0451588	0.0241348	0.00312818	0.293031	-0.188882	0	0	-0.0140153	-0.0750279	0.0645436	0.31386	-0.159041	0	0	-0.0826756	0.0983008	-0.212084	0.264878	-0.104666	1.5708	0	0.195027	0	0	0.00341283	-0.238734	0.349849	0.623223	1.5708	0	0
0.35	2.40573	1.49747	-0.681918	0.692196	-0.1731	0.938802	-0.043023	0.0241309	0.00316092	0.292786	-0.188635	0	0	-0.0116736	-0.0747651	0.065208	0.313676	-0.159244	0	0	-0.0816412	0.0974648	-0.208843	0.262895	-0.105678	1.5708	0	0.193492	0	0	0.00511326	-0.238558	0.351965	0.622803	1.5708	0	0
0.36	2.38928	1.49866	-0.665289	0.692233	-0.172999	0.938732	-0.0410195	0.0240845	0.00386524	0.293498	-0.188365	0	0	-0.00983471	-0.0745647	0.0657241	0.313685	-0.159405	0	0	-0.0811425	0.0967534	-0.205669	0.261138	-0.106617	1.5708	0	0.191819	0	0	0.00686203	-0.238461	0.3542	0.622434	1.5708	0	0
0.37	2.37287	1.49972	-0.649035	0.692313	-0.172945	0.938705	-0.0394318	0.0242444	0.00501539	0.293275	-0.188201	0	0	-0.00815727	-0.0744136	0.0661328	0.313474	-0.159608	0	0	-0.0814832	0.0959971	-0.201433	0.259445	-0.107709	1.5708	0	0.189969	0	0	0.00914056	-0.238425	0.356846	0.622485	1.5708	0	0
